<?xml version="1.0" standalone="no"?>
<svg viewBox="0 0 200 200" xmlns="http://www.w3.org/2000/svg">
  <path fill="#000" d="M34.5,-65.4C42.2,-55.4,44.1,-41,48.5,-29.4C52.8,-17.7,59.6,-8.9,59.3,-0.2C58.9,8.5,51.5,17,46.9,28.1C42.2,39.1,40.3,52.8,33,60.9C25.6,68.9,12.8,71.2,2.7,66.6C-7.5,62,-14.9,50.4,-28.7,46.1C-42.5,41.7,-62.6,44.7,-67,38.3C-71.4,31.8,-60.2,15.9,-59.4,0.5C-58.5,-14.9,-68,-29.8,-63.6,-36.4C-59.2,-42.9,-40.9,-41.1,-28,-48.1C-15.1,-55.2,-7.6,-71,2.9,-76.1C13.4,-81.2,26.9,-75.5,34.5,-65.4Z" transform="translate(100 100)" />
</svg>
